<svg xmlns="http://www.w3.org/2000/svg" width="136.914" height="136.913" viewBox="0 0 136.914 136.913">
  <circle fill="#4ABC96" cx="68.457" cy="68.457" r="63.333"/>
  <path d="M12.618 38.563l5.623.266v-5.014h-2.793c-1.008 1.539-1.957 3.119-2.83 4.748zm13.821.257l23.492.2v-5.206H26.439m68.274 0H67.235v5.205h24.027v88.521c1.871-.723 3.697-1.529 5.478-2.418V35.84c0-1.115-.907-2.026-2.027-2.026z" fill="#357180"/>
  <path fill="#27636D" d="M22.248 39.02l4.191-.2v-5.006h-8.198v5.014"/>
  <path fill="#E7E7D6" d="M18.389 39.02h-.147v68.012c.049.063.099.125.147.188v-68.2zm44.176 56.271l-2.287-4.639-2.31.075-2.747 4.798m-5.22 9.118l16.907-.539-2.162-4.387-12.145.387"/>
  <path d="M12.618 38.563c-.082.15-.155.305-.234.457-1.864 3.543-3.403 7.279-4.576 11.18L6.65 54.659c-.343 1.541-.635 3.102-.863 4.684l-.475 4.482c-.107 1.469-.178 2.949-.183 4.445l.157 4.502c.107 1.592.268 3.17.49 4.727l.818 4.523c.361 1.65.779 3.281 1.267 4.881l1.585 4.545c.633 1.625 1.321 3.223 2.082 4.777l2.479 4.574c1.289 2.166 2.705 4.244 4.234 6.232V38.829l-5.623-.266zm54.617.208l-17.305.043H26.439v77.014c.467.414 3.826 3.146 3.826 3.146 10.618 8.039 23.845 12.816 38.19 12.816 7.018 0 13.762-1.158 20.07-3.266.922-.309 1.834-.635 2.736-.984V38.77H67.235zm-44.987.249l-4.007-.191v.191h.147v68.199c1.111 1.434 2.276 2.822 3.505 4.154V41.279h.888v71.025c1.127 1.174 2.293 2.309 3.506 3.393.05.045.102.086.151.131V38.82l-4.19.2z" fill="#E7E7D6"/>
  <path fill="#DCDDD8" d="M22.248 41.279h-.354v70.094c.116.127.237.246.354.371.177.189.355.375.534.561V41.279h-.534z"/>
  <path fill="#B9B9BA" d="M17.032 52.742c0-1.242-.969-2.279-2.161-2.318l-7.063-.225c-.439 1.463-.823 2.951-1.158 4.459l8.222.262c1.191.039 2.16-.936 2.16-2.178zm0 9.207c0-1.242-.969-2.277-2.161-2.316l-9.085-.291c-.213 1.479-.366 2.975-.475 4.482l9.56.305c1.192.039 2.161-.938 2.161-2.18zm0 8.949c0-1.242-.969-2.279-2.161-2.316l-9.742-.312c-.001.064-.005.125-.005.188 0 1.453.066 2.887.162 4.314l9.585.307c1.192.038 2.161-.938 2.161-2.181zm0 9.206c0-1.24-.969-2.275-2.161-2.314l-9.095-.291c.219 1.527.494 3.033.818 4.523l8.276.264c1.193.038 2.162-.938 2.162-2.182zm0 9.339c0-1.242-.969-2.277-2.161-2.316l-7.01-.225c.469 1.543 1.003 3.055 1.585 4.545l5.425.174c1.192.039 2.161-.937 2.161-2.178zm0 9.205c0-1.238-.969-2.277-2.161-2.316l-3.343-.107c.764 1.564 1.593 3.088 2.479 4.574l.864.027c1.192.039 2.161-.935 2.161-2.178zm12.957-48.224c-1.192.039-2.158 1.076-2.158 2.318s.966 2.217 2.158 2.178l19.941-.637v-4.496l-19.941.637zm51.17 2.863c1.193-.041 2.16-1.076 2.16-2.318 0-1.244-.967-2.219-2.16-2.18l-13.924.445v4.496l13.924-.443zm0 9.207c1.193-.039 2.16-1.076 2.16-2.318s-.967-2.217-2.16-2.178l-13.924.445v4.496l13.924-.445zm-51.17-2.861c-1.192.039-2.158 1.074-2.158 2.316s.966 2.219 2.158 2.18l19.941-.637v-4.496l-19.941.637zm0 8.949c-1.192.037-2.158 1.074-2.158 2.316s.966 2.219 2.158 2.18l19.941-.639v-4.496l-19.941.639zm51.17 2.859c1.193-.039 2.16-1.074 2.16-2.316s-.967-2.219-2.16-2.178l-13.924.443v4.496l13.924-.445zm0 9.209c1.193-.039 2.16-1.078 2.16-2.32s-.967-2.215-2.16-2.176l-13.924.446v4.496l13.924-.446zm-51.17-2.861c-1.192.039-2.158 1.074-2.158 2.314 0 1.244.966 2.221 2.158 2.182l19.941-.637v-4.496l-19.941.637zm51.17 12.197c1.193-.039 2.16-1.078 2.16-2.316 0-1.242-.967-2.217-2.16-2.178l-13.924.445v4.492l13.924-.443zm-51.17-2.859c-1.192.039-2.158 1.074-2.158 2.316 0 1.24.966 2.217 2.158 2.178l19.941-.639V86.49l-19.941.637zm29.24 1.396l-1.261 2.204 2.31-.075m20.881 8.539c1.193-.039 2.16-1.074 2.16-2.316 0-1.24-.967-2.217-2.16-2.178l-13.924.445v4.494l13.924-.445zm-51.17-2.859c-1.192.039-2.158 1.078-2.158 2.316 0 1.242.966 2.217 2.158 2.178l19.941-.637v-4.494l-19.941.637zm22.612 3.772l12.145-.387-2.181-4.426-7.344.234m11.687 8.579l-16.907.539-.07.125v-.123l-19.941.639c-1.192.037-2.158 1.074-2.158 2.314 0 1.242.966 2.219 2.158 2.18l51.17-1.635c1.193-.039 2.16-1.078 2.16-2.318s-.967-2.217-2.16-2.176l-13.924.443v.676l-.328-.664zm14.251 13.244c1.193-.039 2.16-1.074 2.16-2.318 0-1.238-.967-2.215-2.16-2.176l-51.17 1.635c-1.192.039-2.158 1.078-2.158 2.316 0 .086.016.166.024.25.788.658 1.591 1.299 2.41 1.92l50.894-1.627z"/>
  <path fill="#BB5538" d="M49.931 33.775h17.305v.039H49.931zm0 .039v70.831l.07-.002 9.228-16.12 7.679 15.581.327-.012V33.814"/>
  <path fill="#BB5538" d="M50.001 104.643l-.07.002v.123m17.304 0v-.676l-.327.012"/>
</svg>
