<svg xmlns:svg="http://www.w3.org/2000/svg" xmlns="http://www.w3.org/2000/svg" viewBox="16 16 115 110.66667" height="100" width="100" xml:space="preserve" version="1.1" id="svg2">
    <defs id="defs6"/>
    <g transform="" id="g10">
        <g transform="scale(0.16)" id="g12">
            <!--<path id="path14" style="fill:#d52735;fill-opacity:1;fill-rule:evenodd;stroke:none" d="m 433,4.34766 c 236.059,0 427.426,191.36734 427.426,427.42934 0,236.063 -191.367,427.43 -427.426,427.43 C 196.934,859.207 5.56641,667.84 5.56641,431.777 5.56641,195.715 196.934,4.34766 433,4.34766"/>-->
            <!--<path id="path16" style="fill:#f25056;fill-opacity:1;fill-rule:evenodd;stroke:none" d="m 433,40.6992 c 215.98,0 391.07,175.0938 391.07,391.0778 C 824.07,647.762 648.98,822.852 433,822.852 217.012,822.852 41.9219,647.762 41.9219,431.777 41.9219,215.793 217.012,40.6992 433,40.6992"/>-->
            <path id="path18" style="fill:#470000;fill-opacity:1;fill-rule:evenodd;stroke:none" d="m 231.395,280.492 352.886,352.887 c 13.657,13.656 36,13.656 49.664,0 l 0.653,-0.66 c 13.66,-13.657 13.66,-36 0.004,-49.66 L 281.715,230.176 c -13.66,-13.66 -36.004,-13.66 -49.66,0 l -0.66,0.652 c -13.657,13.66 -13.657,36.008 0,49.664"/>
            <path id="path20" style="fill:#470000;fill-opacity:1;fill-rule:evenodd;stroke:none" d="M 281.715,633.379 634.598,280.492 c 13.656,-13.656 13.656,-36.004 0,-49.66 l -0.657,-0.656 c -13.66,-13.66 -36.003,-13.66 -49.66,0 L 231.395,583.059 c -13.661,13.66 -13.661,36.003 0,49.664 l 0.656,0.656 c 13.66,13.66 36.004,13.66 49.664,0"/>
        </g>
    </g>
</svg>
